# xmcd
#
# Track frame offsets: 
#        150
#        19682
#        41442
#        55175
#        76517
#        102863
#        129308
#        149694
#        170233
#        184002
#        203119
#
# Disc length: 2862 seconds
#
# Revision: 4
# Processed by: cddbd v1.5.2PL0 Copyright (c) Steve Scherf et al.
# Submitted via: ExactAudioCopy v1.0b3
#
DISCID=8e0b2c0b
DTITLE=Mary Coughlan - Red Blues
DYEAR=2001
DGENRE=Blues
TTITLE0=Ain't No Love In The Heart Of The City
TTITLE1=Blue Light Boogie
TTITLE2=You Can Leave Your Hat On
TTITLE3=Portland
TTITLE4=I'd Rather Go Blind
TTITLE5=Black Coffee
TTITLE6=Pull Up To The Bumper
TTITLE7=At Last
TTITLE8=She's Got A Way With Men
TTITLE9=One For My Baby
TTITLE10=Strange Fruit
EXTD=
EXTT0=
EXTT1=
EXTT2=
EXTT3=
EXTT4=
EXTT5=
EXTT6=
EXTT7=
EXTT8=
EXTT9=
EXTT10=
PLAYORDER=
